<svg width="57" height="38" viewBox="0 0 57 38" fill="none" xmlns="http://www.w3.org/2000/svg">
<path d="M11 12H27" stroke="white" stroke-width="1.5"/>
<path d="M11 17H47" stroke="white" stroke-width="1.5"/>
<path d="M11 7H47" stroke="white" stroke-width="1.5"/>
<path d="M31 12H47" stroke="white" stroke-width="1.5"/>
<path d="M11 31.8798V25H13.2781L14.7937 28.535C14.8387 28.6419 14.8966 28.7921 14.9674 28.9857C15.0447 29.1726 15.1219 29.3729 15.1991 29.5866C15.2828 29.7935 15.3568 29.9838 15.4211 30.1574H15.4887C15.5466 30.0038 15.6142 29.8269 15.6914 29.6266C15.7686 29.4263 15.8459 29.2294 15.9231 29.0358C16.0003 28.8422 16.0647 28.6819 16.1162 28.5551L17.6317 25H19.8616V31.8798H18.3943V27.6738C18.3943 27.5603 18.3943 27.4335 18.3943 27.2933C18.4007 27.1531 18.4072 27.0162 18.4136 26.8827C18.42 26.7425 18.4265 26.6223 18.4329 26.5222H18.3557C18.3235 26.6223 18.2817 26.7425 18.2302 26.8827C18.1787 27.0229 18.1272 27.1631 18.0757 27.3033C18.0243 27.4435 17.976 27.567 17.9309 27.6738L16.1258 31.8798H14.6971L12.8824 27.6738C12.8244 27.5403 12.7665 27.4034 12.7086 27.2632C12.6571 27.1164 12.6089 26.9795 12.5638 26.8526C12.5252 26.7191 12.4898 26.609 12.4576 26.5222H12.3804C12.3868 26.6023 12.3901 26.7091 12.3901 26.8426C12.3965 26.9695 12.3997 27.1063 12.3997 27.2532C12.4061 27.3934 12.4094 27.5336 12.4094 27.6738V31.8798H11Z" fill="white"/>
<path d="M21.8338 31.8798V25H28.5427V26.2718H23.301V27.7439H27.9635V29.0157H23.301V30.608H28.6199V31.8798H21.8338Z" fill="white"/>
<path d="M30.2919 31.8798V25H31.6723L35.3019 28.6152C35.3856 28.6886 35.4853 28.7887 35.6012 28.9156C35.717 29.0424 35.8361 29.1726 35.9583 29.3062C36.087 29.4397 36.1964 29.5598 36.2865 29.6667H36.3638C36.3573 29.5198 36.3477 29.3429 36.3348 29.1359C36.3284 28.9223 36.3251 28.7487 36.3251 28.6152V25H37.7345V31.8798H36.3831L32.7438 28.2246C32.5701 28.051 32.3867 27.8608 32.1936 27.6538C32.007 27.4402 31.8557 27.2699 31.7399 27.1431H31.6723C31.6788 27.2299 31.6852 27.3834 31.6916 27.6037C31.6981 27.8174 31.7013 28.0644 31.7013 28.3448V31.8798H30.2919Z" fill="white"/>
<path d="M43.3222 32C42.492 32 41.8034 31.8665 41.2564 31.5994C40.7158 31.3324 40.3104 30.9552 40.0401 30.4678C39.7762 29.9738 39.6443 29.3929 39.6443 28.7253V25H41.1116V28.6552C41.1116 29.3162 41.3014 29.8269 41.6811 30.1874C42.0672 30.5479 42.6143 30.7282 43.3222 30.7282C44.0301 30.7282 44.5738 30.5479 44.9535 30.1874C45.3397 29.8269 45.5327 29.3162 45.5327 28.6552V25H47V28.7253C47 29.3929 46.8649 29.9738 46.5946 30.4678C46.3307 30.9552 45.9285 31.3324 45.3879 31.5994C44.8473 31.8665 44.1588 32 43.3222 32Z" fill="white"/>
</svg>
