<svg width="164" height="34" viewBox="0 0 164 34" fill="none" xmlns="http://www.w3.org/2000/svg">
<path d="M23.8529 12.1366L24.2635 10.5894C24.3007 10.4484 24.3051 10.3007 24.2763 10.1577C24.2475 10.0148 24.1863 9.88031 24.0973 9.76471C24.0084 9.64911 23.8942 9.55544 23.7634 9.49091C23.6326 9.42637 23.4888 9.39269 23.343 9.39246H0.362056C0.328233 9.39264 0.294807 9.39976 0.263847 9.41338C0.232887 9.427 0.205053 9.44683 0.182066 9.47164C0.159079 9.49645 0.141429 9.52572 0.130208 9.55762C0.118987 9.58953 0.114435 9.62341 0.116833 9.65714L0.268637 11.798C0.71432 18.0706 3.12179 23.0588 7.90169 27.1731C7.91423 27.1838 7.92925 27.1912 7.94539 27.1947C7.96153 27.1982 7.97829 27.1976 7.99413 27.1929C8.00998 27.1883 8.02442 27.1798 8.03615 27.1682C8.04787 27.1565 8.05651 27.1422 8.06128 27.1264L10.9183 17.189C11.0294 16.802 11.2635 16.4616 11.5851 16.2194C11.9067 15.9771 12.2984 15.8461 12.7011 15.8461H19.0496C20.1475 15.8451 21.2141 15.4806 22.0831 14.8095C22.952 14.1384 23.5743 13.1986 23.8529 12.1366Z" fill="#F4F4F4"/>
<path d="M34.6812 9.38842C34.775 6.49428 34.6761 3.59712 34.3854 0.716092C34.3636 0.516746 34.2681 0.332752 34.1175 0.20024C33.967 0.0677271 33.7724 -0.00373134 33.5719 -0.000113166H1.02341C0.823123 -0.00368651 0.628747 0.0678381 0.478548 0.200388C0.328348 0.332938 0.233205 0.516911 0.211843 0.716092C0.145672 1.43619 0.0541989 2.65257 -0.000295146 4.17451C-0.00160621 4.20752 0.00376834 4.24046 0.0155036 4.27135C0.0272388 4.30223 0.0450928 4.33043 0.0679958 4.35424C0.0908988 4.37805 0.118377 4.39699 0.148782 4.40991C0.179186 4.42284 0.21189 4.42949 0.244928 4.42947H25.1662C25.8572 4.42935 26.5391 4.58798 27.1591 4.89313C27.7791 5.19828 28.3207 5.64177 28.7422 6.18941C29.1636 6.73706 29.4536 7.3742 29.5898 8.05168C29.726 8.72917 29.7048 9.42888 29.5277 10.0968L28.6499 13.4054C28.0865 15.5219 26.84 17.393 25.1039 18.7282C23.3678 20.0635 21.2394 20.788 19.0492 20.7893H15.2502C15.1908 20.7888 15.1327 20.8074 15.0847 20.8425C15.0366 20.8775 15.0012 20.9272 14.9836 20.984L12.2823 30.3822C12.2759 30.4022 12.2763 30.4236 12.2833 30.4433C12.2903 30.463 12.3036 30.4798 12.3212 30.4912C13.8784 31.5408 15.5039 32.4855 17.1867 33.3191C17.2208 33.3363 17.2585 33.3453 17.2967 33.3453C17.3349 33.3453 17.3726 33.3363 17.4066 33.3191C21.6144 31.2989 25.9972 28.3231 29.0839 24.8102C32.8791 20.5247 34.4419 15.0227 34.6812 9.38842Z" fill="#F4F4F4"/>
<path d="M46.0388 17.7624H48.9581C49.0176 17.7629 49.0766 17.7515 49.1317 17.7289C49.1868 17.7063 49.237 17.6729 49.2793 17.6306C49.321 17.5879 49.3539 17.5372 49.3759 17.4814C49.398 17.4257 49.4088 17.3661 49.4077 17.3061V12.4711H64.0977C64.7357 12.4711 65.3674 12.3437 65.9565 12.0963C66.5456 11.8489 67.0806 11.4864 67.5307 11.0294C67.9808 10.5725 68.3371 10.0302 68.5793 9.43373C68.8215 8.83722 68.9447 8.19824 68.9419 7.55348V5.96018C68.9426 5.31655 68.8179 4.67907 68.5749 4.08417C68.3318 3.48926 67.9752 2.94858 67.5254 2.49301C67.0755 2.03744 66.5413 1.6759 65.9532 1.42906C65.365 1.18222 64.7346 1.0549 64.0977 1.05438H46.0388C45.9247 1.05742 45.8162 1.105 45.736 1.18714C45.6558 1.26929 45.6102 1.37961 45.6087 1.495V17.308C45.6076 17.368 45.6185 17.4277 45.6405 17.4834C45.6626 17.5391 45.6954 17.5899 45.7372 17.6326C45.8169 17.7142 45.9253 17.7609 46.0388 17.7624ZM65.1487 8.02557C65.1506 8.16582 65.1241 8.30497 65.0709 8.43451C65.0176 8.56405 64.9388 8.68125 64.8393 8.77894C64.7462 8.88428 64.6319 8.96815 64.5039 9.02483C64.376 9.08152 64.2374 9.10969 64.0977 9.10744H49.4019V4.42785H64.0977C64.2354 4.42542 64.3721 4.45197 64.4991 4.50581C64.6261 4.55966 64.7406 4.63961 64.8354 4.74061C64.936 4.83865 65.0153 4.95679 65.0682 5.08752C65.1212 5.21825 65.1466 5.35869 65.1429 5.49989L65.1487 8.02557Z" fill="#F4F4F4"/>
<path d="M73.5427 17.7624H76.462C76.5215 17.7631 76.5806 17.7518 76.6357 17.7292C76.6908 17.7065 76.741 17.673 76.7831 17.6306C76.824 17.5904 76.8566 17.5424 76.879 17.4894C76.9014 17.4364 76.9131 17.3794 76.9135 17.3218V12.4868H89.9415L92.3178 17.5322C92.3567 17.6022 92.4131 17.6605 92.4815 17.7013C92.5499 17.7421 92.6277 17.7638 92.7071 17.7643H95.9378C96.0184 17.7664 96.0978 17.745 96.1668 17.7028C96.2358 17.6607 96.2914 17.5994 96.327 17.5263C96.3558 17.4653 96.3722 17.399 96.3752 17.3314C96.3783 17.2638 96.3678 17.1963 96.3445 17.1329L93.8748 11.9026C94.5986 11.5199 95.2136 10.9565 95.6614 10.266C96.1802 9.46808 96.4513 8.53173 96.4399 7.57704V5.96014C96.4422 5.31552 96.3186 4.67677 96.0763 4.0805C95.8339 3.48423 95.4775 2.94216 95.0275 2.48533C94.5775 2.02851 94.0428 1.66592 93.4539 1.41834C92.865 1.17076 92.2336 1.04305 91.5958 1.04254H73.5427C73.4857 1.04304 73.4293 1.05495 73.3769 1.07757C73.3244 1.10019 73.2769 1.13308 73.2371 1.17434C73.195 1.21682 73.1617 1.26745 73.1393 1.32321C73.1169 1.37897 73.1058 1.43872 73.1067 1.4989V17.3119C73.1092 17.428 73.156 17.5386 73.2372 17.6207C73.3184 17.7028 73.4278 17.75 73.5427 17.7525V17.7624ZM91.6074 4.44158C91.884 4.44364 92.1487 4.55559 92.3442 4.75324C92.5398 4.95089 92.6505 5.21837 92.6526 5.49788V8.02553C92.6557 8.16695 92.6301 8.30752 92.5772 8.43848C92.5243 8.56945 92.4453 8.688 92.3451 8.78677C92.2497 8.88684 92.135 8.96606 92.0082 9.01952C91.8813 9.07298 91.7449 9.09954 91.6074 9.09757H76.9058V4.44355L91.6074 4.44158Z" fill="#F4F4F4"/>
<path d="M101.045 17.7624H103.964C104.023 17.7629 104.082 17.7515 104.138 17.7288C104.193 17.7062 104.243 17.6728 104.285 17.6306C104.326 17.5904 104.359 17.5424 104.381 17.4894C104.403 17.4364 104.415 17.3794 104.415 17.3217V1.51069C104.416 1.45052 104.405 1.39077 104.383 1.33501C104.361 1.27925 104.327 1.22862 104.285 1.18613C104.243 1.14387 104.193 1.11047 104.138 1.08785C104.082 1.06523 104.023 1.05384 103.964 1.05434H101.045C100.988 1.05488 100.932 1.06682 100.88 1.08944C100.828 1.11207 100.781 1.14493 100.741 1.18613C100.699 1.22862 100.666 1.27925 100.643 1.33501C100.621 1.39077 100.61 1.45052 100.611 1.51069V17.3237C100.613 17.4395 100.66 17.5498 100.74 17.6318C100.821 17.7139 100.93 17.7613 101.045 17.7643V17.7624Z" fill="#F4F4F4"/>
<path d="M109.005 17.7624H111.924C111.983 17.7632 112.043 17.7519 112.098 17.7293C112.153 17.7066 112.203 17.673 112.245 17.6305C112.287 17.588 112.32 17.5373 112.343 17.4816C112.365 17.4259 112.376 17.3662 112.375 17.306V4.42783H113.818C114.271 4.42783 114.596 4.66781 114.818 5.15367L119.115 17.4968C119.15 17.5756 119.206 17.6427 119.277 17.6902C119.348 17.7376 119.431 17.7634 119.516 17.7644H121.887C121.98 17.7658 122.07 17.7369 122.146 17.6819C122.221 17.627 122.277 17.549 122.305 17.4595L126.587 5.17727C126.814 4.66584 127.134 4.42783 127.595 4.42783H129.039V17.308C129.038 17.3681 129.049 17.4278 129.072 17.4836C129.094 17.5393 129.127 17.5899 129.169 17.6326C129.209 17.6738 129.256 17.7066 129.308 17.7293C129.36 17.7519 129.416 17.7638 129.473 17.7644H132.392C132.452 17.7653 132.511 17.7541 132.566 17.7315C132.621 17.7088 132.671 17.6752 132.713 17.6326C132.755 17.5898 132.788 17.5391 132.811 17.4834C132.833 17.4277 132.844 17.3681 132.844 17.308V1.51071C132.845 1.45057 132.833 1.39087 132.811 1.33514C132.789 1.27942 132.755 1.22879 132.713 1.18626C132.671 1.14372 132.621 1.11014 132.566 1.08748C132.511 1.06483 132.452 1.05357 132.392 1.05436H126.534C126.431 1.05436 126.32 1.05436 126.201 1.07403C125.554 1.13732 124.943 1.40114 124.45 1.82937C123.957 2.26168 123.584 2.81528 123.366 3.43645L120.711 11.1512L118.043 3.43645C117.836 2.81521 117.466 2.26245 116.972 1.83724C116.476 1.41325 115.867 1.14704 115.221 1.07206C115.104 1.07206 114.989 1.05436 114.872 1.05436H109.005C108.948 1.05486 108.891 1.06677 108.839 1.08939C108.786 1.11201 108.739 1.1449 108.699 1.18615C108.657 1.22864 108.624 1.27927 108.601 1.33503C108.579 1.39079 108.568 1.45054 108.569 1.51071V17.308C108.568 17.3681 108.579 17.4278 108.602 17.4836C108.624 17.5393 108.657 17.5899 108.699 17.6326C108.739 17.6735 108.787 17.706 108.839 17.7283C108.891 17.7505 108.948 17.7621 109.005 17.7624Z" fill="#F4F4F4"/>
<path d="M141.855 17.7624H159.904C159.964 17.7634 160.023 17.7523 160.078 17.7296C160.133 17.707 160.183 17.6733 160.225 17.6306C160.267 17.588 160.3 17.5373 160.323 17.4816C160.345 17.4259 160.356 17.3662 160.356 17.306V14.8315C160.355 14.7734 160.343 14.716 160.32 14.6627C160.297 14.6093 160.265 14.5611 160.223 14.5207C160.138 14.4364 160.023 14.3897 159.904 14.3909H141.855C141.715 14.3945 141.575 14.3682 141.446 14.3136C141.316 14.259 141.2 14.1774 141.104 14.0742C141.004 13.9761 140.925 13.8586 140.872 13.7287C140.819 13.5989 140.792 13.4594 140.794 13.3188V11.104H157.629C157.688 11.105 157.747 11.0938 157.802 11.0712C157.857 11.0485 157.906 11.0148 157.948 10.9722C157.99 10.9297 158.024 10.879 158.046 10.8233C158.068 10.7675 158.079 10.7078 158.078 10.6476V8.1711C158.08 8.11114 158.069 8.05158 158.046 7.99597C158.024 7.94036 157.991 7.88984 157.949 7.84743C157.907 7.80503 157.857 7.77159 157.802 7.74914C157.747 7.72668 157.688 7.71565 157.629 7.71672H140.794V5.49987C140.792 5.35934 140.819 5.21991 140.872 5.09006C140.925 4.96021 141.004 4.84265 141.104 4.74453C141.2 4.64167 141.317 4.56035 141.446 4.5058C141.575 4.45126 141.715 4.4247 141.855 4.42783H159.904C159.963 4.4288 160.022 4.41782 160.077 4.39553C160.133 4.37325 160.183 4.34009 160.225 4.29801C160.266 4.25777 160.299 4.20977 160.321 4.15677C160.343 4.10377 160.355 4.04681 160.356 3.98918V1.51071C160.356 1.45057 160.345 1.39087 160.323 1.33514C160.3 1.27942 160.267 1.22879 160.225 1.18626C160.183 1.14372 160.133 1.11014 160.078 1.08748C160.023 1.06483 159.964 1.05357 159.904 1.05436H141.855C141.215 1.05202 140.581 1.17762 139.99 1.42392C139.399 1.67023 138.861 2.03237 138.409 2.48947C137.957 2.94658 137.599 3.48962 137.355 4.08731C137.111 4.685 136.987 5.32551 136.989 5.97196V12.8566C136.986 13.5032 137.11 14.1439 137.354 14.7419C137.597 15.3398 137.956 15.883 138.408 16.3402C138.86 16.7975 139.398 17.1596 139.99 17.4057C140.581 17.6518 141.215 17.7771 141.855 17.7742V17.7624Z" fill="#F4F4F4"/>
<path d="M45.6086 24.8594C45.6086 24.5793 45.6634 24.3019 45.7697 24.0431C45.876 23.7844 46.0318 23.5494 46.2282 23.3517C46.4245 23.1539 46.6576 22.9973 46.914 22.8908C47.1704 22.7843 47.445 22.7301 47.7222 22.7311H54.0572C54.6167 22.7306 55.1536 22.9543 55.5502 23.3533C55.9468 23.7523 56.1706 24.2939 56.1727 24.8594V30.135C56.1725 30.1533 56.1656 30.1709 56.1532 30.1842C56.1471 30.1902 56.1397 30.1949 56.1317 30.198C56.1237 30.201 56.1151 30.2024 56.1065 30.2019H54.7442C54.7368 30.2018 54.7296 30.2001 54.7229 30.1971C54.7162 30.194 54.7102 30.1896 54.7052 30.1842C54.6988 30.1778 54.6937 30.1702 54.6903 30.1617C54.687 30.1532 54.6854 30.1441 54.6858 30.135V27.7431H47.0819V30.135C47.0823 30.153 47.0761 30.1706 47.0644 30.1842C47.0591 30.1898 47.0528 30.1942 47.0458 30.1973C47.0388 30.2003 47.0312 30.2019 47.0235 30.2019H45.6709C45.653 30.2027 45.6356 30.1963 45.6223 30.1842C45.6106 30.1706 45.6044 30.153 45.6048 30.135L45.6086 24.8594ZM54.6936 26.4665V24.647C54.6945 24.5614 54.6777 24.4765 54.6442 24.3979C54.6106 24.3193 54.5612 24.2487 54.4989 24.1906C54.4407 24.1306 54.371 24.0831 54.294 24.051C54.2171 24.0188 54.1345 24.0028 54.0513 24.0038H47.7183C47.6345 24.003 47.5514 24.0191 47.4739 24.0511C47.3963 24.0832 47.3258 24.1305 47.2666 24.1904C47.2073 24.2503 47.1605 24.3215 47.1288 24.3999C47.0971 24.4783 47.0811 24.5623 47.0819 24.647V26.4626L54.6936 26.4665Z" fill="#F4F4F4"/>
<path d="M68.9496 28.0736C68.9496 28.3537 68.8949 28.6311 68.7886 28.8899C68.6823 29.1486 68.5265 29.3836 68.3301 29.5813C68.1337 29.7791 67.9007 29.9357 67.6443 30.0422C67.3879 30.1487 67.1132 30.2029 66.8361 30.2019H60.5011C59.9416 30.2024 59.4047 29.9787 59.0081 29.5797C58.6115 29.1807 58.3876 28.6391 58.3856 28.0736V22.798C58.3851 22.7888 58.3866 22.7797 58.39 22.7712C58.3933 22.7627 58.3985 22.7551 58.4051 22.7488C58.4112 22.7427 58.4185 22.7381 58.4266 22.735C58.4346 22.732 58.4432 22.7306 58.4518 22.7311H59.8141C59.8214 22.7312 59.8287 22.7329 59.8354 22.7359C59.842 22.739 59.8481 22.7433 59.853 22.7488C59.8596 22.7551 59.8648 22.7627 59.8681 22.7712C59.8715 22.7797 59.873 22.7888 59.8725 22.798V28.2821C59.8718 28.3676 59.8887 28.4524 59.9222 28.531C59.9557 28.6095 60.0051 28.6802 60.0671 28.7384C60.1254 28.7985 60.1951 28.846 60.272 28.8781C60.349 28.9102 60.4315 28.9263 60.5147 28.9253H66.8497C66.9335 28.9261 67.0166 28.91 67.0941 28.8779C67.1717 28.8459 67.2422 28.7985 67.3014 28.7387C67.3607 28.6788 67.4075 28.6075 67.4392 28.5291C67.4709 28.4508 67.4869 28.3668 67.4861 28.2821V22.798C67.4852 22.789 67.4863 22.7799 67.4893 22.7713C67.4923 22.7628 67.4971 22.755 67.5034 22.7486C67.5098 22.7422 67.5174 22.7373 67.5259 22.7343C67.5343 22.7313 67.5433 22.7302 67.5523 22.7311H68.8971C68.9149 22.7307 68.9323 22.737 68.9457 22.7488C68.9578 22.7622 68.964 22.7799 68.9633 22.798L68.9496 28.0736Z" fill="#F4F4F4"/>
<path d="M71.1683 22.798C71.1675 22.7799 71.1738 22.7623 71.1858 22.7488C71.1968 22.7381 71.2114 22.7318 71.2267 22.7311H81.6662C81.6815 22.7318 81.696 22.7381 81.707 22.7488C81.719 22.7623 81.7253 22.7799 81.7245 22.798V23.9487C81.7241 23.9642 81.7178 23.979 81.7069 23.9899C81.6961 24.0009 81.6815 24.0073 81.6662 24.0077H77.1899V30.1351C77.1902 30.1442 77.1887 30.1533 77.1853 30.1618C77.182 30.1702 77.1769 30.1779 77.1704 30.1842C77.1651 30.1898 77.1588 30.1943 77.1518 30.1973C77.1447 30.2004 77.1372 30.2019 77.1295 30.2019H75.775C75.7664 30.2024 75.7578 30.2011 75.7498 30.198C75.7417 30.195 75.7344 30.1903 75.7283 30.1842C75.7218 30.1779 75.7167 30.1702 75.7133 30.1618C75.71 30.1533 75.7084 30.1442 75.7088 30.1351V24.0077H71.2325C71.2172 24.0073 71.2026 24.0009 71.1918 23.9899C71.1809 23.979 71.1746 23.9642 71.1741 23.9487L71.1683 22.798Z" fill="#F4F4F4"/>
<path d="M92.3917 22.7311C92.6695 22.7304 92.9448 22.7851 93.2017 22.8921C93.4586 22.9992 93.692 23.1565 93.8886 23.355C94.0852 23.5535 94.241 23.7893 94.3472 24.0488C94.4533 24.3083 94.5077 24.5865 94.5072 24.8673V28.0658C94.5077 28.3466 94.4533 28.6248 94.3472 28.8843C94.241 29.1439 94.0852 29.3796 93.8886 29.5781C93.692 29.7766 93.4586 29.9339 93.2017 30.041C92.9448 30.148 92.6695 30.2027 92.3917 30.202H86.0567C85.4972 30.2004 84.9611 29.9746 84.566 29.5742C84.1709 29.1737 83.949 28.6313 83.949 28.0658V24.8673C83.949 24.3008 84.1717 23.7574 84.568 23.3568C84.9644 22.9562 85.502 22.7311 86.0626 22.7311H92.3917ZM93.0281 24.651C93.0288 24.5669 93.0128 24.4835 92.9811 24.4058C92.9493 24.3281 92.9024 24.2576 92.8432 24.1986C92.7854 24.1361 92.7155 24.0863 92.6378 24.0525C92.5601 24.0186 92.4763 24.0014 92.3917 24.0019H86.0567C85.8886 24.0039 85.7279 24.0723 85.6089 24.1925C85.49 24.3127 85.4223 24.4751 85.4203 24.6451V28.2762C85.4223 28.4462 85.49 28.6086 85.6089 28.7288C85.7279 28.849 85.8886 28.9174 86.0567 28.9194H92.3917C92.4763 28.9199 92.5601 28.9027 92.6378 28.8689C92.7155 28.835 92.7854 28.7853 92.8432 28.7227C92.9024 28.6637 92.9493 28.5932 92.9811 28.5155C93.0128 28.4378 93.0288 28.3544 93.0281 28.2703V24.651Z" fill="#F4F4F4"/>
<path d="M105.595 22.7311C105.873 22.7309 106.148 22.7859 106.404 22.8932C106.661 23.0004 106.894 23.1577 107.091 23.3561C107.287 23.5545 107.443 23.7901 107.549 24.0494C107.656 24.3087 107.711 24.5866 107.711 24.8673V30.1429C107.71 30.1508 107.708 30.1585 107.705 30.1656C107.702 30.1728 107.697 30.1791 107.691 30.1842C107.685 30.1903 107.678 30.195 107.67 30.198C107.661 30.2011 107.653 30.2024 107.644 30.2019H106.282C106.275 30.2018 106.267 30.2002 106.261 30.1971C106.254 30.1941 106.248 30.1897 106.243 30.1842C106.237 30.1791 106.232 30.1728 106.229 30.1656C106.226 30.1585 106.224 30.1508 106.224 30.1429V24.647C106.223 24.5628 106.206 24.4794 106.173 24.4022C106.139 24.3251 106.09 24.2557 106.029 24.1986C105.97 24.138 105.9 24.0902 105.822 24.0581C105.745 24.026 105.661 24.0102 105.577 24.0117H102.956V30.139C102.955 30.1545 102.949 30.1692 102.938 30.1803C102.925 30.1925 102.908 30.1988 102.89 30.198H101.545C101.527 30.1988 101.51 30.1925 101.496 30.1803C101.486 30.1692 101.479 30.1545 101.479 30.139V24.0156H98.8397C98.7558 24.0139 98.6724 24.0296 98.5947 24.0617C98.5171 24.0938 98.4468 24.1418 98.3882 24.2025C98.3265 24.2594 98.2774 24.3286 98.2438 24.4059C98.2103 24.4831 98.1932 24.5666 98.1935 24.651V30.1429C98.1933 30.1508 98.1914 30.1585 98.1881 30.1656C98.1847 30.1728 98.18 30.1791 98.1741 30.1842C98.1688 30.1898 98.1625 30.1943 98.1554 30.1973C98.1484 30.2004 98.1408 30.2019 98.1332 30.2019H96.7942C96.7856 30.2024 96.7771 30.2011 96.769 30.198C96.761 30.195 96.7537 30.1903 96.7475 30.1842C96.7416 30.1791 96.7368 30.1728 96.7335 30.1656C96.7301 30.1585 96.7283 30.1508 96.728 30.1429V24.8673C96.7296 24.3009 96.953 23.7582 97.3495 23.3578C97.7459 22.9575 98.2832 22.7322 98.8436 22.7311H105.595Z" fill="#F4F4F4"/>
<path d="M118.378 22.7311C118.656 22.7301 118.931 22.7846 119.188 22.8916C119.445 22.9986 119.678 23.1559 119.875 23.3544C120.071 23.553 120.227 23.7889 120.333 24.0486C120.438 24.3082 120.492 24.5865 120.491 24.8673V28.0657C120.492 28.3465 120.438 28.6248 120.333 28.8844C120.227 29.1441 120.071 29.38 119.875 29.5785C119.678 29.7771 119.445 29.9344 119.188 30.0414C118.931 30.1484 118.656 30.2029 118.378 30.2019H112.043C111.765 30.2022 111.49 30.1471 111.233 30.0399C110.977 29.9326 110.743 29.7753 110.547 29.5769C110.351 29.3785 110.195 29.1429 110.088 28.8836C109.982 28.6243 109.927 28.3464 109.927 28.0657V24.8673C109.927 24.5866 109.982 24.3087 110.088 24.0494C110.195 23.79 110.351 23.5545 110.547 23.3561C110.743 23.1577 110.977 23.0004 111.233 22.8931C111.49 22.7859 111.765 22.7308 112.043 22.7311H118.378ZM119.014 24.6509C119.014 24.4805 118.946 24.3172 118.827 24.1967C118.708 24.0762 118.546 24.0082 118.378 24.0077H112.043C111.875 24.0097 111.714 24.0782 111.595 24.1984C111.476 24.3185 111.408 24.481 111.406 24.6509V28.2821C111.408 28.452 111.476 28.6145 111.595 28.7346C111.714 28.8548 111.875 28.9233 112.043 28.9253H118.378C118.546 28.9248 118.708 28.8568 118.827 28.7363C118.946 28.6158 119.014 28.4525 119.014 28.2821V24.6509Z" fill="#F4F4F4"/>
<path d="M122.105 22.798C122.104 22.7799 122.11 22.7623 122.122 22.7488C122.133 22.7377 122.148 22.7314 122.163 22.7311H132.604C132.612 22.7313 132.619 22.7329 132.626 22.736C132.632 22.739 132.638 22.7434 132.643 22.7488C132.65 22.7551 132.655 22.7628 132.658 22.7713C132.662 22.7798 132.663 22.7889 132.663 22.798V23.9487C132.663 23.9566 132.661 23.9643 132.657 23.9714C132.654 23.9786 132.649 23.9849 132.643 23.99C132.638 23.9955 132.632 23.9999 132.626 24.0029C132.619 24.0059 132.612 24.0076 132.604 24.0077H128.128V30.1351C128.128 30.1534 128.121 30.1709 128.109 30.1842C128.103 30.1898 128.097 30.1943 128.09 30.1973C128.083 30.2004 128.075 30.2019 128.068 30.2019H126.715C126.706 30.2029 126.697 30.2018 126.689 30.1987C126.68 30.1957 126.673 30.1908 126.666 30.1844C126.66 30.178 126.655 30.1703 126.652 30.1617C126.649 30.1532 126.648 30.1441 126.649 30.1351V24.0077H122.173C122.157 24.0075 122.143 24.0012 122.132 23.99C122.121 23.9789 122.115 23.9642 122.114 23.9487L122.105 22.798Z" fill="#F4F4F4"/>
<path d="M135.751 30.1429C135.751 30.1508 135.749 30.1585 135.746 30.1656C135.743 30.1727 135.738 30.1791 135.732 30.1842C135.726 30.1903 135.718 30.195 135.71 30.198C135.702 30.201 135.694 30.2024 135.685 30.2019H134.323C134.315 30.2019 134.308 30.2003 134.301 30.1973C134.294 30.1943 134.287 30.1898 134.282 30.1842C134.276 30.1791 134.271 30.1727 134.268 30.1656C134.265 30.1585 134.263 30.1508 134.263 30.1429V22.798C134.262 22.7889 134.264 22.7797 134.267 22.7712C134.27 22.7627 134.275 22.7551 134.282 22.7488C134.287 22.7432 134.294 22.7388 134.301 22.7357C134.308 22.7327 134.315 22.7311 134.323 22.7311H135.685C135.694 22.7306 135.702 22.732 135.71 22.735C135.718 22.7381 135.726 22.7428 135.732 22.7488C135.739 22.7551 135.744 22.7627 135.747 22.7712C135.75 22.7797 135.752 22.7889 135.751 22.798V30.1429Z" fill="#F4F4F4"/>
<path d="M146.456 22.798C146.457 22.7812 146.464 22.7653 146.475 22.7528C146.481 22.7455 146.488 22.7398 146.497 22.736C146.505 22.7323 146.515 22.7306 146.524 22.7311H147.886C147.895 22.7306 147.904 22.7323 147.912 22.736C147.92 22.7398 147.927 22.7455 147.933 22.7528C147.945 22.7648 147.952 22.781 147.952 22.798V26.2875C147.953 26.5421 147.888 26.7924 147.765 27.0146C147.642 27.2367 147.465 27.4233 147.25 27.5563L143.332 30.0151C143.13 30.1395 142.899 30.2054 142.663 30.2054C142.426 30.2054 142.195 30.1395 141.993 30.0151L138.054 27.5563C137.841 27.422 137.665 27.235 137.544 27.013C137.422 26.791 137.359 26.5413 137.359 26.2875V22.798C137.36 22.781 137.367 22.7648 137.379 22.7528C137.383 22.746 137.389 22.7405 137.396 22.7367C137.403 22.733 137.411 22.731 137.419 22.7311H138.782C138.791 22.7307 138.8 22.7325 138.809 22.7362C138.817 22.74 138.825 22.7456 138.83 22.7528C138.841 22.7654 138.847 22.7813 138.848 22.798V25.9276C138.848 26.0374 138.875 26.1455 138.929 26.2413C138.982 26.3371 139.059 26.4174 139.152 26.4744L142.433 28.5358C142.5 28.5772 142.576 28.5992 142.655 28.5992C142.733 28.5992 142.81 28.5772 142.877 28.5358L146.168 26.4744C146.259 26.416 146.333 26.3351 146.385 26.2394C146.436 26.1438 146.463 26.0364 146.462 25.9276L146.456 22.798Z" fill="#F4F4F4"/>
<path d="M151.033 25.8272H158.995C159.004 25.8269 159.013 25.8284 159.021 25.8318C159.03 25.8352 159.037 25.8403 159.044 25.8469C159.05 25.8531 159.054 25.8605 159.057 25.8686C159.06 25.8768 159.062 25.8854 159.061 25.8941V27.0448C159.062 27.0538 159.061 27.0628 159.058 27.0713C159.055 27.0797 159.05 27.0875 159.044 27.094C159.031 27.1065 159.013 27.1135 158.995 27.1137H151.033V28.2939C151.032 28.378 151.048 28.4614 151.08 28.5391C151.112 28.6168 151.159 28.6873 151.218 28.7463C151.276 28.8088 151.346 28.8586 151.423 28.8924C151.501 28.9263 151.585 28.9435 151.67 28.943H160.046C160.064 28.9426 160.081 28.9489 160.095 28.9607C160.1 28.966 160.105 28.9724 160.108 28.9795C160.111 28.9866 160.112 28.9943 160.112 29.002V30.1527C160.113 30.1617 160.112 30.1708 160.109 30.1794C160.106 30.1879 160.101 30.1957 160.095 30.2021C160.089 30.2085 160.081 30.2134 160.072 30.2164C160.064 30.2194 160.055 30.2205 160.046 30.2196H151.677C151.399 30.2209 151.124 30.1666 150.867 30.0597C150.61 29.9528 150.376 29.7956 150.179 29.597C149.983 29.3984 149.827 29.1624 149.721 28.9026C149.615 28.6428 149.561 28.3644 149.562 28.0834V24.8673C149.561 24.5863 149.615 24.3079 149.721 24.0481C149.827 23.7884 149.983 23.5524 150.179 23.3538C150.376 23.1552 150.61 22.9979 150.867 22.891C151.124 22.7842 151.399 22.7298 151.677 22.7311H160.046C160.064 22.7307 160.081 22.737 160.095 22.7488C160.107 22.7622 160.113 22.7799 160.112 22.798V23.9487C160.112 23.9642 160.105 23.9789 160.095 23.99C160.081 24.0018 160.064 24.0081 160.046 24.0077H151.677C151.593 24.0072 151.509 24.0245 151.431 24.0583C151.353 24.0922 151.284 24.1419 151.226 24.2044C151.167 24.2635 151.12 24.3339 151.088 24.4117C151.056 24.4894 151.04 24.5727 151.041 24.6568L151.033 25.8272Z" fill="#F4F4F4"/>
</svg>
